<?xml version="1.0" standalone="no"?>
<!DOCTYPE svg PUBLIC "-//W3C//DTD SVG 1.1//EN"
   "http://www.w3.org/Graphics/SVG/1.1/DTD/svg11.dtd">
<svg
    xmlns="http://www.w3.org/2000/svg"
    version="1.1"
    style="color:#000000;stroke:#7f7f7f;fill:none;stroke-width:.25;font-size:8"
    id="parblo-a609"
    width="320"
    height="210">
    <title id="title">Parblo A609</title>
    <g>
        <path id="ButtonA" class="A Button" d="M 31 71 v -23 c 0 -2 2 -4 4 -4 h 12 c 2 0 4 2 4 4 v 23 c 0 0.5 -0.5 1 -1 1 h -18 c -0.5 0 -1 -0.5 -1 -1 z"/>
        <path id="LeaderA" class="A Leader" d="m 55 57 24 0"/>
        <text id="LabelA" class="A Label" x="82" y="57" style="text-anchor:start">A</text>
    </g>
    <g>
        <rect id="ButtonB" class="B Button" x="31" y="72" width="20" height="28" rx="1"/>
        <path id="LeaderB" class="B Leader" d="m 55 86 24 0"/>
        <text id="LabelB" class="B Label" x="82" y="86" style="text-anchor:start">B</text>
    </g>
    <g>
        <rect id="ButtonC" class="C Button" x="31" y="100" width="20" height="28" rx="1"/>
        <path id="LeaderC" class="C Leader" d="m 55 114 24 0"/>
        <text id="LabelC" class="C Label" x="82" y="114" style="text-anchor:start">C</text>
    </g>
    <g>
        <path id="ButtonD" class="D Button" d="M 31 152 v -23 c 0 -0.5 1 -1 1 -1 h 18 c 0.5 0 1 0.5 1 1 v 23 c 0 2 -2 4 -4 4 h -12 c -2 0 -4 -2 -4 -4 z"/>
        <path id="LeaderD" class="D Leader" d="m 55 142 24 0"/>
        <text id="LabelD" class="D Label" x="82" y="142" style="text-anchor:start">D</text>
    </g>
</svg>
